<?xml version="1.0" encoding="UTF-8" standalone="no"?>
<!DOCTYPE svg PUBLIC "-//W3C//DTD SVG 1.1//EN" "http://www.w3.org/Graphics/SVG/1.1/DTD/svg11.dtd">
<svg width="100%" height="100%" viewBox="0 0 128 128" version="1.1" xmlns="http://www.w3.org/2000/svg" xmlns:xlink="http://www.w3.org/1999/xlink" xml:space="preserve" xmlns:serif="http://www.serif.com/" style="fill:#FA5F1A;fill-rule:evenodd;clip-rule:evenodd;stroke-linejoin:round;stroke-miterlimit:2;">
    <g transform="matrix(1.15356,0,0,1.11849,-19.6555,-15.1669)">
        <path d="M128,20.713C128,18.816 127.269,16.996 125.969,15.655C124.668,14.314 122.904,13.56 121.065,13.56L23.974,13.56C22.135,13.56 20.371,14.314 19.07,15.655C17.77,16.996 17.039,18.816 17.039,20.713L17.039,120.848C17.039,122.744 17.77,124.564 19.07,125.905C20.371,127.246 22.135,128 23.974,128L121.065,128C122.904,128 124.668,127.246 125.969,125.905C127.269,124.564 128,122.744 128,120.848L128,20.713Z"/>
    </g>
    <g transform="matrix(0.567257,0,0,0.48531,23.5449,46.5879)">
        <ellipse cx="71.317" cy="82.903" rx="44.658" ry="14.514" style="fill:white;"/>
    </g>
    <path d="M86.624,69.139C87.238,68.906 87.928,68.99 88.469,69.363C89.009,69.736 89.332,70.352 89.332,71.009C89.332,76.262 89.332,86.821 89.332,86.821L38.668,86.821L38.668,71.009C38.668,70.352 38.991,69.736 39.531,69.363C40.072,68.99 40.762,68.906 41.376,69.139C47.91,71.615 64,77.713 64,77.713C64,77.713 80.09,71.615 86.624,69.139Z" style="fill:white;"/>
    <path d="M96.061,59.978L64.709,71.861C64.252,72.034 63.748,72.034 63.291,71.861C58.839,70.173 34.582,60.979 24.005,56.971C23.228,56.676 22.714,55.932 22.714,55.101C22.714,54.269 23.228,53.525 24.005,53.23C34.582,49.222 58.839,40.028 63.291,38.341C63.748,38.167 64.252,38.167 64.709,38.341C69.161,40.028 93.418,49.222 103.995,53.23C104.772,53.525 105.286,54.269 105.286,55.101C105.286,55.932 104.772,56.676 103.995,56.971L102.732,57.449L102.732,75.999C104.968,77.175 106.494,79.521 106.494,82.221C106.494,84.702 105.204,86.885 103.259,88.135L105.786,98.054C105.938,98.652 105.805,99.287 105.427,99.775C105.048,100.262 104.465,100.547 103.847,100.547C101.317,100.547 97.476,100.547 94.945,100.547C94.328,100.547 93.745,100.262 93.366,99.775C92.987,99.287 92.855,98.652 93.007,98.054L95.555,88.052C93.68,86.791 92.445,84.649 92.445,82.221C92.445,79.58 93.905,77.279 96.061,76.078L96.061,59.978Z" style="fill:white;"/>
</svg>
