<?xml version="1.0" ?>
<!DOCTYPE svg PUBLIC '-//W3C//DTD SVG 1.1//EN' 'http://www.w3.org/Graphics/SVG/1.1/DTD/svg11.dtd'><svg
    width="100%" height="100%" viewBox="0 0 500 500" version="1.1"
    xml:space="preserve" xmlns="http://www.w3.org/2000/svg"
    xmlns:serif="http://www.serif.com/" xmlns:xlink="http://www.w3.org/1999/xlink"
    >
    <defs id="SvgjsDefs1605"></defs>
    <g id="SvgjsG1606" featurekey="monogramFeature-0"
        transform="matrix(7.716048792211307,0,0,7.716048792211307,-18.518515997517504,-30.55554615290312)"
        fill="#111111">
        <path
            d="M4.62 3.960000000000001 l-2.22 0 l0 56.04 l2.22 0 l0 -16.74 c0 -3.96 2.64 -7.2 4.98 -10.56 c1.44 -2.1 2.58 -3.72 3.54 -5.22 l0 32.52 l2.22 0 l0 -56.04 l-2.22 0 l0 15.84 c0 3.72 -1.68 6.3 -4.68 10.56 c-1.56 2.28 -2.82 4.02 -3.84 5.58 l0 -31.98 z">
        </path>
    </g>
    <g id="SvgjsG1607" featurekey="nameFeature-0"
        transform="matrix(1.7722481558462069,0,0,1.7722481558462069,114.84169672425067,163.2789347851836)"
        fill="#111111">
        <path
            d="M15.059 19.531 c4.4922 0 7.1875 2.5 7.1875 7.5195 l0 12.949 l-5.6445 0 l0 -12.031 c0 -2.9492 -1.6406 -3.9258 -3.6523 -3.9258 c-2.0898 0 -4.375 1.0352 -4.4141 4.8828 l0 11.074 l-5.625 0 l0 -30 l5.625 0 l0 12.324 c1.4258 -1.7383 3.6719 -2.793 6.5234 -2.793 z M41.396484375 34.5508 c0 2.4609 0.23438 4.0234 0.48828 4.9023 l0 0.54688 l-5.2539 0 l-0.44922 -2.1875 c-1.5039 1.8164 -4.1016 2.5781 -6.4453 2.5781 c-3.1641 0 -6.25 -1.4063 -6.25 -5.5859 c0 -4.1602 3.1055 -5.5664 7.3047 -6.4844 l3.3008 -0.74219 c1.4258 -0.33203 1.9336 -0.82031 1.9336 -1.6406 c0 -1.9727 -1.7969 -2.5195 -3.3789 -2.5195 c-2.0313 0 -3.5742 0.80078 -3.9258 3.0664 l-4.9805 -0.89844 c0.83984 -4.1602 3.8867 -6.0547 9.2188 -6.0547 c4.0234 0 8.4375 1.1914 8.4375 7.2461 l0 7.7734 z M31.494184375 36.582 c2.6758 0 4.8242 -1.7773 4.8242 -5.7617 l-4.7656 1.3477 c-1.5625 0.37109 -2.6953 0.91797 -2.6953 2.2656 c0 1.4453 1.1914 2.1484 2.6367 2.1484 z M47.01176875 16.914 c-1.7773 0 -3.2617 -1.4453 -3.2617 -3.2422 c0 -1.7773 1.4844 -3.2227 3.2617 -3.2227 c1.7383 0 3.2227 1.4453 3.2227 3.2227 c0 1.7969 -1.4844 3.2422 -3.2227 3.2422 z M44.14066875 40 l0 -20.078 l5.6641 0 l0 20.078 l-5.6641 0 z M74.80425 10 l5.625 0 l0 30 l-5.332 0 l-0.13672 -2.6172 c-1.1523 1.9727 -3.5742 3.0859 -6.3086 3.0859 c-5.293 0 -9.668 -3.9063 -9.668 -10.469 s4.3945 -10.469 9.668 -10.469 c2.6367 0 4.9609 0.99609 6.1523 2.8125 l0 -12.344 z M69.94125 35.8008 c2.9883 0 5.3125 -2.2852 5.3125 -5.8008 s-2.3438 -5.8203 -5.3125 -5.8203 c-2.9883 0 -5.332 2.207 -5.332 5.8203 c0 3.5938 2.3438 5.8008 5.332 5.8008 z M99.990234375 34.5508 c0 2.4609 0.23438 4.0234 0.48828 4.9023 l0 0.54688 l-5.2539 0 l-0.44922 -2.1875 c-1.5039 1.8164 -4.1016 2.5781 -6.4453 2.5781 c-3.1641 0 -6.25 -1.4063 -6.25 -5.5859 c0 -4.1602 3.1055 -5.5664 7.3047 -6.4844 l3.3008 -0.74219 c1.4258 -0.33203 1.9336 -0.82031 1.9336 -1.6406 c0 -1.9727 -1.7969 -2.5195 -3.3789 -2.5195 c-2.0313 0 -3.5742 0.80078 -3.9258 3.0664 l-4.9805 -0.89844 c0.83984 -4.1602 3.8867 -6.0547 9.2188 -6.0547 c4.0234 0 8.4375 1.1914 8.4375 7.2461 l0 7.7734 z M90.087934375 36.582 c2.6758 0 4.8242 -1.7773 4.8242 -5.7617 l-4.7656 1.3477 c-1.5625 0.37109 -2.6953 0.91797 -2.6953 2.2656 c0 1.4453 1.1914 2.1484 2.6367 2.1484 z M114.59021875 19.531 c4.8242 0 7.4805 2.5 7.4805 6.9531 l0 13.516 l-5.6445 0 l0 -12.305 c0 -2.6758 -1.6602 -3.6523 -3.5938 -3.6523 c-2.3242 0 -4.4336 1.1719 -4.4727 4.8828 l0 11.074 l-5.625 0 l0 -20.078 l5.625 0 l0 2.2266 c1.4063 -1.6602 3.5742 -2.6172 6.2305 -2.6172 z M138.622765625 19.922 l5.3516 0 l0 18.574 c0 7.8125 -4.2383 10.977 -10.645 10.977 c-5.7617 0 -8.8867 -2.4219 -10.352 -6.2305 l4.668 -1.9922 c1.1328 2.5977 2.7734 3.8477 5.4688 3.8477 c3.5547 0 5.2148 -2.2266 5.2148 -6.1914 l0 -2.3438 c-1.1719 1.6016 -3.4766 2.7344 -6.0938 2.7344 c-4.9805 0 -9.1602 -3.9258 -9.1602 -9.9219 c0 -6.0156 4.1992 -9.8438 9.1992 -9.8438 c2.8125 0 5.1172 1.25 6.2109 3.0469 z M133.681765625 34.7461 c2.9297 0 5.1953 -2.3828 5.1953 -5.3711 c0 -3.0078 -2.2266 -5.3906 -5.1953 -5.3906 c-2.9492 0 -5.1758 2.2852 -5.1758 5.3906 c0 3.0664 2.2656 5.3711 5.1758 5.3711 z">
        </path>
    </g>
</svg>